<?xml version="1.0" encoding="UTF-8" standalone="no"?>
<svg
   width="28"
   height="41"
   version="1.1"
   id="svg55"
   sodipodi:docname="pin_empty_df.svg"
   inkscape:version="1.1 (c68e22c387, 2021-05-23)"
   xmlns:inkscape="http://www.inkscape.org/namespaces/inkscape"
   xmlns:sodipodi="http://sodipodi.sourceforge.net/DTD/sodipodi-0.dtd"
   xmlns:xlink="http://www.w3.org/1999/xlink"
   xmlns="http://www.w3.org/2000/svg"
   xmlns:svg="http://www.w3.org/2000/svg">
  <sodipodi:namedview
     id="namedview57"
     pagecolor="#ffffff"
     bordercolor="#666666"
     borderopacity="1.0"
     inkscape:pageshadow="2"
     inkscape:pageopacity="0.0"
     inkscape:pagecheckerboard="0"
     showgrid="false"
     inkscape:zoom="20.341463"
     inkscape:cx="25.440648"
     inkscape:cy="16.542566"
     inkscape:window-width="1680"
     inkscape:window-height="1027"
     inkscape:window-x="-8"
     inkscape:window-y="19"
     inkscape:window-maximized="1"
     inkscape:current-layer="svg55" />
  <defs
     id="defs46">
    <linearGradient
       id="b">
      <stop
         stop-color="#2e6c97"
         offset="0"
         id="stop34" />
      <stop
         stop-color="#3883b7"
         offset="1"
         id="stop36" />
    </linearGradient>
    <linearGradient
       id="a">
      <stop
         stop-color="#126fc6"
         offset="0"
         id="stop39" />
      <stop
         stop-color="#4c9cd1"
         offset="1"
         id="stop41" />
    </linearGradient>
    <linearGradient
       y2="-0.004651"
       x2="0.498125"
       y1="0.971494"
       x1="0.498125"
       id="c"
       xlink:href="#a" />
    <linearGradient
       y2="-0.004651"
       x2="0.415917"
       y1="0.490437"
       x1="0.415917"
       id="d"
       xlink:href="#b" />
  </defs>
  <g
     id="g53">
    <title
       id="title48">Layer 1</title>
    <rect
       id="svg_1"
       fill="#fff"
       width="12.625"
       height="14.5"
       x="411.279"
       y="508.575" />
    <path
       stroke="url(#d)"
       id="svg_2"
       stroke-linecap="round"
       stroke-width="1.1"
       fill="url(#c)"
       d="M 14.095833,1.55 C 7.248958,1.55 1.55,7.241 1.55,13.416 c 0,2.778 1.629167,6.308 2.80625,8.746 L 14.05,40.034 23.697916,22.162 c 1.177083,-2.438 2.852083,-5.791 2.852083,-8.746 0,-6.175 -5.607291,-11.866 -12.454166,-11.866 z"
       sodipodi:nodetypes="sscccss" />
    <path
       id="svg_3"
       fill="none"
       stroke-opacity="0.122"
       stroke-linecap="round"
       stroke-width="1.1"
       stroke="#fff"
       d="m347.488007,453.719c-5.944,0 -10.938,5.219 -10.938,10.75c0,2.359 1.443,5.832 2.563,8.25l0.031,0.031l8.313,15.969l8.25,-15.969l0.031,-0.031c1.135,-2.448 2.625,-5.706 2.625,-8.25c0,-5.538 -4.931,-10.75 -10.875,-10.75zm0,4.969c3.168,0.021 5.781,2.601 5.781,5.781c0,3.18 -2.613,5.761 -5.781,5.781c-3.168,-0.02 -5.75,-2.61 -5.75,-5.781c0,-3.172 2.582,-5.761 5.75,-5.781z" />
  </g>
  <g
     id="g66"
     transform="matrix(0.77877697,0,0,0.83886224,3.8051562,1.6830539)"
     style="fill:#ffffff">
    <g
       id="g56"
       style="fill:#ffffff" />
    <g
       id="g64"
       style="fill:#ffffff">
      <path
         d="M 8,8 H 6 v 7 c 0,1.1 0.9,2 2,2 h 9 V 15 H 8 Z"
         id="path58"
         style="fill:#ffffff" />
      <path
         d="m 20,3 h -8 c -1.1,0 -2,0.9 -2,2 v 6 c 0,1.1 0.9,2 2,2 h 8 c 1.1,0 2,-0.9 2,-2 V 5 C 22,3.9 21.1,3 20,3 Z m 0,8 H 12 V 7 h 8 z"
         id="path60"
         style="fill:#ffffff" />
      <path
         d="M 4,12 H 2 v 7 c 0,1.1 0.9,2 2,2 h 9 V 19 H 4 Z"
         id="path62"
         style="fill:#ffffff" />
    </g>
  </g>
</svg>
