<?xml version="1.0" encoding="UTF-8" standalone="no"?>
<svg
   xmlns:dc="http://purl.org/dc/elements/1.1/"
   xmlns:cc="http://creativecommons.org/ns#"
   xmlns:rdf="http://www.w3.org/1999/02/22-rdf-syntax-ns#"
   xmlns:svg="http://www.w3.org/2000/svg"
   xmlns="http://www.w3.org/2000/svg"
   xmlns:xlink="http://www.w3.org/1999/xlink"
   xmlns:sodipodi="http://sodipodi.sourceforge.net/DTD/sodipodi-0.dtd"
   xmlns:inkscape="http://www.inkscape.org/namespaces/inkscape"
   width="28"
   height="41"
   version="1.1"
   id="svg55"
   sodipodi:docname="pin_purple_empty.svg"
   inkscape:version="0.92.5 (2060ec1f9f, 2020-04-08)">
  <metadata
     id="metadata18">
    <rdf:RDF>
      <cc:Work
         rdf:about="">
        <dc:format>image/svg+xml</dc:format>
        <dc:type
           rdf:resource="http://purl.org/dc/dcmitype/StillImage" />
        <dc:title></dc:title>
      </cc:Work>
    </rdf:RDF>
  </metadata>
  <sodipodi:namedview
     id="namedview57"
     pagecolor="#ffffff"
     bordercolor="#666666"
     borderopacity="1.0"
     inkscape:pageshadow="2"
     inkscape:pageopacity="0.0"
     inkscape:pagecheckerboard="0"
     showgrid="false"
     inkscape:zoom="20.341463"
     inkscape:cx="25.440647"
     inkscape:cy="16.542566"
     inkscape:window-width="2560"
     inkscape:window-height="1376"
     inkscape:window-x="0"
     inkscape:window-y="27"
     inkscape:window-maximized="1"
     inkscape:current-layer="svg55" />
  <defs
     id="defs46">
    <linearGradient
       id="b">
      <stop
         stop-color="#2e6c97"
         offset="0"
         id="stop34" />
      <stop
         stop-color="#3883b7"
         offset="1"
         id="stop36" />
    </linearGradient>
    <linearGradient
       id="a">
      <stop
         stop-color="#126fc6"
         offset="0"
         id="stop39" />
      <stop
         stop-color="#4c9cd1"
         offset="1"
         id="stop41" />
    </linearGradient>
    <linearGradient
       y2="-0.004651"
       x2="0.498125"
       y1="0.971494"
       x1="0.498125"
       id="c"
       xlink:href="#a" />
    <linearGradient
       y2="-0.004651"
       x2="0.415917"
       y1="0.490437"
       x1="0.415917"
       id="d"
       xlink:href="#b" />
  </defs>
  <g
     id="g53">
    <title
       id="title48">Layer 1</title>
    <rect
       id="svg_1"
       fill="#fff"
       width="12.625"
       height="14.5"
       x="411.279"
       y="508.575" />
    <path
       id="svg_2"
       d="M 14.095833,1.55 C 7.248958,1.55 1.55,7.241 1.55,13.416 c 0,2.778 1.629167,6.308 2.80625,8.746 L 14.05,40.034 23.697916,22.162 c 1.177083,-2.438 2.852083,-5.791 2.852083,-8.746 0,-6.175 -5.607291,-11.866 -12.454166,-11.866 z"
       sodipodi:nodetypes="sscccss"
       style="fill:#75507b;stroke:#5c3566;stroke-width:1.10000002;stroke-linecap:round"
       inkscape:connector-curvature="0" />
    <path
       id="svg_3"
       fill="none"
       stroke-opacity="0.122"
       stroke-linecap="round"
       stroke-width="1.1"
       stroke="#fff"
       d="m347.488007,453.719c-5.944,0 -10.938,5.219 -10.938,10.75c0,2.359 1.443,5.832 2.563,8.25l0.031,0.031l8.313,15.969l8.25,-15.969l0.031,-0.031c1.135,-2.448 2.625,-5.706 2.625,-8.25c0,-5.538 -4.931,-10.75 -10.875,-10.75zm0,4.969c3.168,0.021 5.781,2.601 5.781,5.781c0,3.18 -2.613,5.761 -5.781,5.781c-3.168,-0.02 -5.75,-2.61 -5.75,-5.781c0,-3.172 2.582,-5.761 5.75,-5.781z" />
  </g>
</svg>
