<?xml version="1.0" encoding="UTF-8" standalone="no"?>
<svg
   xmlns:dc="http://purl.org/dc/elements/1.1/"
   xmlns:cc="http://creativecommons.org/ns#"
   xmlns:rdf="http://www.w3.org/1999/02/22-rdf-syntax-ns#"
   xmlns:svg="http://www.w3.org/2000/svg"
   xmlns="http://www.w3.org/2000/svg"
   xmlns:xlink="http://www.w3.org/1999/xlink"
   xmlns:sodipodi="http://sodipodi.sourceforge.net/DTD/sodipodi-0.dtd"
   xmlns:inkscape="http://www.inkscape.org/namespaces/inkscape"
   width="28"
   height="41"
   version="1.1"
   id="svg55"
   sodipodi:docname="pin_red_3d.svg"
   inkscape:version="0.92.5 (2060ec1f9f, 2020-04-08)">
  <metadata
     id="metadata19">
    <rdf:RDF>
      <cc:Work
         rdf:about="">
        <dc:format>image/svg+xml</dc:format>
        <dc:type
           rdf:resource="http://purl.org/dc/dcmitype/StillImage" />
        <dc:title />
      </cc:Work>
    </rdf:RDF>
  </metadata>
  <sodipodi:namedview
     id="namedview57"
     pagecolor="#ffffff"
     bordercolor="#666666"
     borderopacity="1.0"
     inkscape:pageshadow="2"
     inkscape:pageopacity="0.0"
     inkscape:pagecheckerboard="0"
     showgrid="false"
     inkscape:zoom="16"
     inkscape:cx="18.4375"
     inkscape:cy="15.8125"
     inkscape:window-width="1271"
     inkscape:window-height="1042"
     inkscape:window-x="100"
     inkscape:window-y="237"
     inkscape:window-maximized="0"
     inkscape:current-layer="svg55" />
  <defs
     id="defs46">
    <linearGradient
       id="b">
      <stop
         stop-color="#EF2929"
         offset="0"
         id="stop34" />
      <stop
         stop-color="#CC0000"
         offset="1"
         id="stop36" />
    </linearGradient>
    <linearGradient
       id="a">
      <stop
         stop-color="#126fc6"
         offset="0"
         id="stop39" />
      <stop
         stop-color="#4c9cd1"
         offset="1"
         id="stop41" />
    </linearGradient>
    <linearGradient
       y2="-0.004651"
       x2="0.498125"
       y1="0.971494"
       x1="0.498125"
       id="c"
       xlink:href="#a" />
    <linearGradient
       y2="-0.004651"
       x2="0.415917"
       y1="0.490437"
       x1="0.415917"
       id="d"
       xlink:href="#b" />
  </defs>
  <g
     id="g53"
     style="fill:#a40000">
    <title
       id="title48">Layer 1</title>
    <rect
       id="svg_1"
       fill="#fff"
       width="12.625"
       height="14.5"
       x="411.279"
       y="508.575"
       style="fill:#a40000" />
    <path
       stroke="url(#d)"
       id="svg_2"
       stroke-linecap="round"
       stroke-width="1.1"
       fill="url(#c)"
       d="M 14.095833,1.55 C 7.248958,1.55 1.55,7.241 1.55,13.416 c 0,2.778 1.629167,6.308 2.80625,8.746 L 14.05,40.034 23.697916,22.162 c 1.177083,-2.438 2.852083,-5.791 2.852083,-8.746 0,-6.175 -5.607291,-11.866 -12.454166,-11.866 z"
       sodipodi:nodetypes="sscccss"
       style="fill:#a40000" />
    <path
       id="svg_3"
       fill="none"
       stroke-opacity="0.122"
       stroke-linecap="round"
       stroke-width="1.1"
       stroke="#fff"
       d="m347.488007,453.719c-5.944,0 -10.938,5.219 -10.938,10.75c0,2.359 1.443,5.832 2.563,8.25l0.031,0.031l8.313,15.969l8.25,-15.969l0.031,-0.031c1.135,-2.448 2.625,-5.706 2.625,-8.25c0,-5.538 -4.931,-10.75 -10.875,-10.75zm0,4.969c3.168,0.021 5.781,2.601 5.781,5.781c0,3.18 -2.613,5.761 -5.781,5.781c-3.168,-0.02 -5.75,-2.61 -5.75,-5.781c0,-3.172 2.582,-5.761 5.75,-5.781z"
       style="fill:#a40000" />
  </g>
  <path
     d="M 9.6158331,22.62068 C 6.3458332,21.131312 4.0058332,18.095291 3.6458332,14.50553 h -1.5 c 0.5,5.881098 5.66,10.501959 11.9499998,10.501959 l 0.66,-0.02864 -3.81,-3.637497 -1.3299999,1.279329 M 10.505833,16.37679 c -0.19,0 -0.36,-0.02864 -0.5199999,-0.07638 -0.16,-0.05728 -0.29,-0.124114 -0.4,-0.229133 -0.11,-0.09547 -0.2,-0.210039 -0.26,-0.353248 -0.06,-0.133661 -0.09,-0.286417 -0.09,-0.448719 h -1.3 c 0,0.3437 0.07,0.668306 0.21,0.906986 0.14,0.238681 0.33,0.477362 0.56,0.65876 0.24,0.17185 0.51,0.305511 0.8199999,0.391436 0.3,0.09547 0.62,0.143209 0.96,0.143209 0.37,0 0.72,-0.04773 1.03,-0.143209 0.32,-0.09547 0.6,-0.23868 0.83,-0.420078 0.23,-0.181397 0.42,-0.391437 0.55,-0.687401 0.13,-0.27687 0.2,-0.582382 0.2,-0.926082 0,-0.181398 -0.02,-0.362794 -0.07,-0.534645 -0.05,-0.152756 -0.12,-0.334153 -0.23,-0.486909 -0.1,-0.143209 -0.24,-0.286417 -0.4,-0.410531 -0.17,-0.124114 -0.37,-0.210039 -0.61,-0.295964 0.2,-0.08593 0.36,-0.190945 0.52,-0.31506 0.15,-0.124113 0.27,-0.257775 0.37,-0.400983 0.1,-0.152756 0.17,-0.286417 0.22,-0.439173 0.05,-0.152756 0.07,-0.305511 0.07,-0.458267 0,-0.343701 -0.06,-0.649213 -0.18,-0.916535 -0.14,-0.248228 -0.29,-0.486909 -0.51,-0.658759 -0.2,-0.181398 -0.47,-0.3150589 -0.77,-0.4105314 -0.31,-0.085925 -0.65,-0.1336613 -1.02,-0.1336613 -0.34,0 -0.69,0.047736 -1,0.1527558 -0.2999999,0.1050196 -0.5699999,0.2482279 -0.7899999,0.4296259 -0.21,0.181398 -0.38,0.372342 -0.51,0.639665 -0.12,0.248227 -0.18,0.51555 -0.18,0.811515 H 9.305833 c 0,-0.162304 0.03,-0.305512 0.09,-0.429626 0.06,-0.124114 0.14,-0.238681 0.25,-0.324606 0.11,-0.08593 0.23,-0.162303 0.38,-0.210039 0.15,-0.04773 0.3,-0.07637 0.48,-0.07637 0.4,0 0.7,0.09547 0.89,0.295964 0.19,0.190945 0.29,0.467814 0.29,0.821062 0,0.17185 -0.04,0.324606 -0.08,0.467815 -0.05,0.143208 -0.14,0.257775 -0.25,0.353247 -0.11,0.09547 -0.25,0.171851 -0.41,0.229134 -0.16,0.05728 -0.36,0.08593 -0.58,0.08593 h -0.77 v 0.983366 h 0.77 c 0.22,0 0.42,0.01909 0.6,0.06683 0.18,0.04773 0.33,0.124114 0.45,0.219587 0.12,0.105019 0.23,0.229134 0.29,0.38189 0.07,0.152755 0.1,0.353246 0.1,0.544192 0,0.391436 -0.12,0.6874 -0.35,0.887892 -0.23,0.219587 -0.55,0.31506 -0.95,0.31506 m 8.55,-5.651964 c -0.32,-0.31506 -0.7,-0.563287 -1.14,-0.7351375 -0.43,-0.1718502 -0.92,-0.2577754 -1.46,-0.2577754 h -2.36 v 7.6377879 h 2.3 c 0.55,0 1.06,-0.08593 1.51,-0.257775 0.45,-0.17185 0.84,-0.410531 1.16,-0.72559 0.32,-0.315058 0.58,-0.696948 0.74,-1.136121 0.17,-0.448719 0.26,-0.945176 0.26,-1.498915 v -0.38189 c 0,-0.55374 -0.09,-1.050196 -0.26,-1.498916 -0.16,-0.44872 -0.43,-0.830609 -0.75,-1.145668 m -0.41,3.016926 c 0,0.400984 -0.03,0.763779 -0.12,1.078838 -0.1,0.315058 -0.24,0.591929 -0.43,0.811515 -0.19,0.219587 -0.45,0.391437 -0.71,0.506004 -0.29,0.114566 -0.62,0.17185 -0.99,0.17185 h -0.91 v -5.508755 h 0.97 c 0.72,0 1.27,0.219586 1.64,0.658758 0.38,0.439173 0.55,1.069292 0.55,1.899901 m -4.55,-11.2657385 -0.66,0.028642 3.81,3.6374968 1.33,-1.2793296 c 3.27,1.4893688 5.61,4.5158426 5.96,8.1151503 h 1.5 c -0.5,-5.8811 -5.65,-10.5019621 -11.94,-10.5019621 z"
     id="path129"
     style="fill:#ffffff;stroke-width:0.977096" />
</svg>
