<?xml version="1.0" encoding="UTF-8" standalone="no"?>
<svg
   xmlns:dc="http://purl.org/dc/elements/1.1/"
   xmlns:cc="http://creativecommons.org/ns#"
   xmlns:rdf="http://www.w3.org/1999/02/22-rdf-syntax-ns#"
   xmlns:svg="http://www.w3.org/2000/svg"
   xmlns="http://www.w3.org/2000/svg"
   xmlns:xlink="http://www.w3.org/1999/xlink"
   xmlns:sodipodi="http://sodipodi.sourceforge.net/DTD/sodipodi-0.dtd"
   xmlns:inkscape="http://www.inkscape.org/namespaces/inkscape"
   width="28"
   height="41"
   version="1.1"
   id="svg23"
   sodipodi:docname="pin_blue_point2.svg"
   inkscape:version="0.92.5 (2060ec1f9f, 2020-04-08)">
  <metadata
     id="metadata27">
    <rdf:RDF>
      <cc:Work
         rdf:about="">
        <dc:format>image/svg+xml</dc:format>
        <dc:type
           rdf:resource="http://purl.org/dc/dcmitype/StillImage" />
        <dc:title></dc:title>
      </cc:Work>
    </rdf:RDF>
  </metadata>
  <sodipodi:namedview
     pagecolor="#ffffff"
     bordercolor="#666666"
     borderopacity="1"
     objecttolerance="10"
     gridtolerance="10"
     guidetolerance="10"
     inkscape:pageopacity="0"
     inkscape:pageshadow="2"
     inkscape:window-width="1315"
     inkscape:window-height="704"
     id="namedview25"
     showgrid="false"
     inkscape:zoom="23.02439"
     inkscape:cx="6.8592034"
     inkscape:cy="24.968186"
     inkscape:window-x="601"
     inkscape:window-y="482"
     inkscape:window-maximized="0"
     inkscape:current-layer="svg23" />
  <defs
     id="defs14">
    <linearGradient
       id="b">
      <stop
         stop-color="#2e6c97"
         offset="0"
         id="stop2" />
      <stop
         stop-color="#3883b7"
         offset="1"
         id="stop4" />
    </linearGradient>
    <linearGradient
       id="a">
      <stop
         stop-color="#126fc6"
         offset="0"
         id="stop7" />
      <stop
         stop-color="#4c9cd1"
         offset="1"
         id="stop9" />
    </linearGradient>
    <linearGradient
       y2="-0.004651"
       x2="0.498125"
       y1="0.971494"
       x1="0.498125"
       id="c"
       xlink:href="#a" />
    <linearGradient
       y2="-0.004651"
       x2="0.415917"
       y1="0.490437"
       x1="0.415917"
       id="d"
       xlink:href="#b" />
  </defs>
  <ellipse
     style="fill:#ff8080;fill-opacity:1;stroke-width:0.89991975"
     id="path93"
     cx="14.097722"
     cy="13.398835"
     rx="4.366837"
     ry="4.1519418" />
  <g
     id="g21">
    <title
       id="title16">Layer 1</title>
    <rect
       id="svg_1"
       fill="#fff"
       width="12.625"
       height="14.5"
       x="411.279"
       y="508.575" />
    <path
       stroke="url(#d)"
       id="svg_2"
       stroke-linecap="round"
       stroke-width="1.1"
       fill="url(#c)"
       d="m14.095833,1.55c-6.846875,0 -12.545833,5.691 -12.545833,11.866c0,2.778 1.629167,6.308 2.80625,8.746l9.69375,17.872l9.647916,-17.872c1.177083,-2.438 2.852083,-5.791 2.852083,-8.746c0,-6.175 -5.607291,-11.866 -12.454166,-11.866zm0,7.155c2.691667,0.017 4.873958,2.122 4.873958,4.71s-2.182292,4.663 -4.873958,4.679c-2.691667,-0.017 -4.873958,-2.09 -4.873958,-4.679c0,-2.588 2.182292,-4.693 4.873958,-4.71z" />
    <path
       id="svg_3"
       fill="none"
       stroke-opacity="0.122"
       stroke-linecap="round"
       stroke-width="1.1"
       stroke="#fff"
       d="m347.488007,453.719c-5.944,0 -10.938,5.219 -10.938,10.75c0,2.359 1.443,5.832 2.563,8.25l0.031,0.031l8.313,15.969l8.25,-15.969l0.031,-0.031c1.135,-2.448 2.625,-5.706 2.625,-8.25c0,-5.538 -4.931,-10.75 -10.875,-10.75zm0,4.969c3.168,0.021 5.781,2.601 5.781,5.781c0,3.18 -2.613,5.761 -5.781,5.781c-3.168,-0.02 -5.75,-2.61 -5.75,-5.781c0,-3.172 2.582,-5.761 5.75,-5.781z" />
  </g>
</svg>
