<svg xmlns="http://www.w3.org/2000/svg" viewBox="0 0 584.69 142.02"><defs><style>.cls-1{fill:#fff;}</style></defs><title>Logo-menu</title><g id="Layer_2" data-name="Layer 2"><g id="Vrstva_1" data-name="Vrstva 1"><path class="cls-1" d="M130.23,45.33H131a1.24,1.24,0,0,0,1.44-1l9.79-26.77h6.36l9.74,26.77a1.24,1.24,0,0,0,1.44,1h.74v5.15h-3.62c-2.32,0-3.15-.6-3.9-2.69l-2-5.75H139.79l-2,5.75c-.74,2.09-1.53,2.69-3.85,2.69h-3.66Zm19.3-8.3-2.83-8.26c-.6-1.81-1.3-4.92-1.3-4.92h-.09s-.7,3.11-1.3,4.92L141.18,37Z"/><path class="cls-1" d="M164.83,32.85a.91.91,0,0,0-1-1H162v-5h5.38c2.09,0,3.15.88,3.15,2.88v1.39a10.79,10.79,0,0,1-.09,1.48h.09c1.07-3.39,3.9-6.08,7.51-6.08a7.64,7.64,0,0,1,1.07.09v5.8a10.47,10.47,0,0,0-1.44-.09,6.66,6.66,0,0,0-6.45,5,14.31,14.31,0,0,0-.51,3.85v9.37h-5.84Z"/><path class="cls-1" d="M193.64,26.27c3.06,0,8.58,1.25,8.58,5.33v2.78H197v-1.3c0-1.3-1.95-1.86-3.39-1.86-4.08,0-7,3.11-7,7.38,0,4.82,3.57,7.28,7.38,7.28,4,0,7-3.2,7-3.2l2.46,4.08a13.53,13.53,0,0,1-10,4.27c-7.79,0-12.8-5.52-12.8-12.39C180.7,32,185.52,26.27,193.64,26.27Z"/><path class="cls-1" d="M207.69,23.58a.91.91,0,0,0-1-1h-1.86v-5h5.61c2.18,0,3.15,1,3.15,3.11V29c0,1.16-.09,2-.09,2h.09a9,9,0,0,1,8.12-4.69c5.29,0,8.26,2.74,8.26,9V44.5a.93.93,0,0,0,1,1h1.86v5h-5.61c-2.18,0-3.11-.93-3.11-3.15V36.47c0-2.88-.79-4.82-3.76-4.82a6.65,6.65,0,0,0-6.4,4.92,10.66,10.66,0,0,0-.37,3.06V50.48h-5.89Z"/><path class="cls-1" d="M247.21,26.27c6.77,0,10.48,5,10.48,11.23,0,.7-.14,2.18-.14,2.18H241.23a6.8,6.8,0,0,0,7.1,6.35A10.75,10.75,0,0,0,255,43.38l2.46,4.08A14.39,14.39,0,0,1,247.91,51c-7.84,0-12.71-5.66-12.71-12.39C235.2,31.37,240.11,26.27,247.21,26.27Zm4.45,9.32c-.09-2.83-2-4.78-4.45-4.78a5.67,5.67,0,0,0-5.8,4.78Z"/><path class="cls-1" d="M274,26.27c7.24,0,13,5.15,13,12.38S281.21,51,274,51,261,45.93,261,38.65,266.78,26.27,274,26.27ZM274,46A7,7,0,0,0,281,38.65a7,7,0,1,0-14.06,0A7,7,0,0,0,274,46Z"/><path class="cls-1" d="M291.78,23.58a.91.91,0,0,0-1-1h-1.86v-5h5.61c2.18,0,3.15,1,3.15,3.15V44.5a.93.93,0,0,0,1,1h1.81v5h-5.57c-2.23,0-3.15-.93-3.15-3.15Z"/><path class="cls-1" d="M316,26.27c7.24,0,13,5.15,13,12.38S323.23,51,316,51s-12.94-5.1-12.94-12.39S308.8,26.27,316,26.27ZM316,46A7,7,0,0,0,323,38.65a7,7,0,1,0-14.06,0A7,7,0,0,0,316,46Z"/><path class="cls-1" d="M342.43,26.27c5.47,0,7.28,3.34,7.28,3.34h.09V29c0-1.07.74-2.18,2.6-2.18h5.47v5h-1.81a.9.9,0,0,0-1,.93V49c0,8.12-6.31,11.18-12.48,11.18a18.85,18.85,0,0,1-8.4-2L336,53.54a15.27,15.27,0,0,0,6.54,1.58c3.57,0,6.68-1.53,6.68-5.8V48.21c0-.56,0-1.25,0-1.25h-.09c-1.39,2-3.43,3.06-6.59,3.06-6.77,0-10.62-5.47-10.62-12S335.61,26.27,342.43,26.27Zm6.91,11.83c0-5.38-2.69-6.82-5.89-6.82-3.57,0-5.52,2.6-5.52,6.59s2.09,7.19,5.89,7.19C346.65,45.05,349.34,43.43,349.34,38.09Z"/><path class="cls-1" d="M362.89,32.85a.91.91,0,0,0-1-1H360v-5h5.61c2.18,0,3.11,1,3.11,3.15V44.5a.93.93,0,0,0,1,1h1.86v5H366c-2.18,0-3.11-.93-3.11-3.15Zm.28-15.31h5.1V23h-5.1Z"/><path class="cls-1" d="M387.14,26.27c3.06,0,8.58,1.25,8.58,5.33v2.78h-5.2v-1.3c0-1.3-1.95-1.86-3.39-1.86-4.08,0-7,3.11-7,7.38,0,4.82,3.57,7.28,7.38,7.28,4,0,7-3.2,7-3.2L397,46.77A13.53,13.53,0,0,1,387,51c-7.79,0-12.8-5.52-12.8-12.39C374.2,32,379,26.27,387.14,26.27Z"/><path class="cls-1" d="M401.2,23.58a.91.91,0,0,0-1-1h-1.86v-5h5.61c2.18,0,3.15.51,3.15,2.69V35.17h1.76a2.61,2.61,0,0,0,2.23-.88l4.82-7.47h6.54l-6,8.91a5.72,5.72,0,0,1-1.76,1.86v.09a3.94,3.94,0,0,1,1.67,1.86l2.69,5.1c.37.7.83.88,1.95.88h1.58v5h-4.36c-2,0-2.78-.33-3.71-2L410.57,41a2.26,2.26,0,0,0-2.18-.88h-1.3V50.48H401.2Z"/><path class="cls-1" d="M438.63,35.64h.74v-.19c0-3.39-1.34-4.64-4.36-4.64-1.07,0-3.15.28-3.15,1.58v1.25h-5.47v-2.5c0-4.41,6.22-4.87,8.67-4.87,7.88,0,10.21,4.13,10.21,9.42V44.5a.93.93,0,0,0,1,1h1.86v5h-5.29c-2.18,0-3-1.21-3-2.6a10.13,10.13,0,0,1,0-1h-.09A7.7,7.7,0,0,1,432.65,51c-4.22,0-8.07-2.64-8.07-7.38C424.57,36.24,434.78,35.64,438.63,35.64Zm-4.55,10.81c3.15,0,5.38-3.34,5.38-6.21v-.56h-1c-3.06,0-7.93.42-7.93,3.71C430.51,45,431.67,46.44,434.08,46.44Zm2.78-28.85h5.66l-4.87,6.31h-4.31Z"/><path class="cls-1" d="M465.16,32.85a.91.91,0,0,0-1-1h-1.86v-5h5.43c2.09,0,3.11,1,3.11,2.64v.7c0,.51,0,1,0,1h.09a8.81,8.81,0,0,1,7.65-4.92c3.57,0,5.89,1.67,6.91,4.87h.09a9.14,9.14,0,0,1,8.07-4.87c4.92,0,7.75,2.78,7.75,9V44.5a.93.93,0,0,0,1,1h1.81v5H498.6c-2.23,0-3.15-.93-3.15-3.15V36.38c0-2.69-.51-4.73-3.25-4.73-2.92,0-5,2.46-5.66,5.43a10.33,10.33,0,0,0-.37,3V50.48h-5.89V36.38c0-2.55-.37-4.73-3.2-4.73s-5,2.46-5.71,5.47a12.12,12.12,0,0,0-.37,3V50.48h-5.84Z"/><path class="cls-1" d="M520.63,35.64h.74v-.19c0-3.39-1.34-4.64-4.36-4.64-1.07,0-3.15.28-3.15,1.58v1.25h-5.47v-2.5c0-4.41,6.22-4.87,8.67-4.87,7.88,0,10.21,4.13,10.21,9.42V44.5a.93.93,0,0,0,1,1h1.86v5h-5.29c-2.18,0-3-1.21-3-2.6a10.13,10.13,0,0,1,0-1h-.09A7.7,7.7,0,0,1,514.65,51c-4.22,0-8.07-2.64-8.07-7.38C506.58,36.24,516.78,35.64,520.63,35.64Zm-4.55,10.81c3.15,0,5.38-3.34,5.38-6.21v-.56h-1c-3.06,0-7.93.42-7.93,3.71C512.51,45,513.67,46.44,516.09,46.44Z"/><path class="cls-1" d="M534.87,32.85a.91.91,0,0,0-1-1H532v-5h5.24c2.18,0,3,1,3,2.27V30h.09s2-3.76,7.51-3.76c6.4,0,10.53,5.06,10.53,12.38,0,7.52-4.64,12.39-10.86,12.39a8.25,8.25,0,0,1-6.77-3.11h-.09a20.28,20.28,0,0,1,.09,2v9.79h-5.85Zm11.55,13.22c3.25,0,6-2.64,6-7.33,0-4.5-2.41-7.42-5.89-7.42-3.06,0-5.94,2.23-5.94,7.47C540.58,42.46,542.52,46.07,546.42,46.07Z"/><path class="cls-1" d="M575.18,35.64h.74v-.19c0-3.39-1.35-4.64-4.36-4.64-1.07,0-3.15.28-3.15,1.58v1.25h-5.47v-2.5c0-4.41,6.22-4.87,8.67-4.87,7.89,0,10.21,4.13,10.21,9.42V44.5a.93.93,0,0,0,1,1h1.86v5H579.4c-2.18,0-3-1.21-3-2.6,0-.6,0-1,0-1h-.09A7.7,7.7,0,0,1,569.19,51c-4.22,0-8.07-2.64-8.07-7.38C561.12,36.24,571.33,35.64,575.18,35.64Zm-4.55,10.81c3.15,0,5.38-3.34,5.38-6.21v-.56h-1c-3.06,0-7.93.42-7.93,3.71C567.06,45,568.22,46.44,570.63,46.44Z"/><path class="cls-1" d="M133.66,67.25c3.67,0,9.66,1.58,9.66,5.47v2.13H140.9V73.43c0-2.42-4.19-3.75-7.16-3.75-5.73,0-10.14,4.48-10.14,10.73S128,91.54,133.85,91.54a11.8,11.8,0,0,0,8.45-3.64l1.47,1.87a13.71,13.71,0,0,1-10,4.19c-7.57,0-12.9-6-12.9-13.56S126.39,67.25,133.66,67.25Zm-4.45-5.73h2.35l2,2.94h.07l2-2.94h2.31l-3.09,4.37h-2.54Z"/><path class="cls-1" d="M155.6,74.6c5.11,0,7.75,3.93,7.75,8.52,0,.44-.07,1.25-.07,1.25H149.09c.07,4.67,3.34,7.35,7.16,7.35a8.24,8.24,0,0,0,5.55-2.28L163,91.32A10.49,10.49,0,0,1,156.15,94a9.36,9.36,0,0,1-9.66-9.66C146.48,78.24,150.64,74.6,155.6,74.6Zm5.18,7.79c-.15-3.82-2.5-5.7-5.22-5.7a6.35,6.35,0,0,0-6.36,5.7Z"/><path class="cls-1" d="M167.65,89a7.53,7.53,0,0,0,5.7,2.79c2.06,0,3.89-1,3.89-2.94,0-4-10.36-3.31-10.36-9.26,0-3.34,2.87-5,6.58-5,1.87,0,5.62.74,5.62,3.34v1.58h-2.35v-.88c0-1.36-2-1.87-3.2-1.87-2.57,0-4.12.88-4.12,2.68,0,4.15,10.36,3.2,10.36,9.33,0,3.09-2.79,5.18-6.47,5.18a8.87,8.87,0,0,1-7.09-3.23Z"/><path class="cls-1" d="M184.4,70.67a.73.73,0,0,0-.81-.81H182V67.7h2.61c1.58,0,2.24.55,2.24,2.13V82.1h1.91a2.65,2.65,0,0,0,2.09-.88L195.64,75h3l-5.33,6.76a4.36,4.36,0,0,1-1.4,1.32v.07a3.07,3.07,0,0,1,1.14,1.36l3.34,6c.33.63.7.81,1.69.81h1v2.17h-1.73c-1.84,0-2.35-.29-3.2-1.84l-3.67-6.61a2.05,2.05,0,0,0-1.95-.81H186.9v9.26h-2.5Z"/><path class="cls-1" d="M209.82,74.6c5.11,0,7.75,3.93,7.75,8.52,0,.44-.07,1.25-.07,1.25H203.32c.07,4.67,3.34,7.35,7.17,7.35A8.24,8.24,0,0,0,216,89.45l1.21,1.87A10.49,10.49,0,0,1,210.37,94a9.36,9.36,0,0,1-9.66-9.66C200.71,78.24,204.86,74.6,209.82,74.6ZM215,82.39c-.15-3.82-2.5-5.7-5.22-5.7a6.35,6.35,0,0,0-6.36,5.7Zm-3.78-14.7H214l-3.2,4.37h-2.17Z"/><path class="cls-1" d="M232.56,78a.74.74,0,0,0-.81-.81h-1.54V75h2.57c1.54,0,2.24.62,2.24,2.09v1.25a13.36,13.36,0,0,1-.07,1.4H235c.88-2.79,2.94-4.92,5.84-4.92a5,5,0,0,1,1,.11v2.46a6.34,6.34,0,0,0-.92-.07c-2.61,0-4.56,2.06-5.36,4.78a12.21,12.21,0,0,0-.51,3.6v7.79h-2.5Z"/><path class="cls-1" d="M252.51,74.6c5.11,0,7.75,3.93,7.75,8.52,0,.44-.07,1.25-.07,1.25H246c.07,4.67,3.34,7.35,7.17,7.35a8.24,8.24,0,0,0,5.55-2.28l1.21,1.87A10.49,10.49,0,0,1,253.06,94a9.36,9.36,0,0,1-9.66-9.66C243.4,78.24,247.55,74.6,252.51,74.6Zm5.18,7.79c-.15-3.82-2.5-5.7-5.22-5.7a6.35,6.35,0,0,0-6.36,5.7Z"/><path class="cls-1" d="M265.26,78a.74.74,0,0,0-.81-.81h-1.54V75h2.54c1.58,0,2.2.66,2.2,1.95,0,.73,0,1.25,0,1.25h.07s1.47-3.64,6.36-3.64,8,4,8,9.7S278.6,94,273.82,94a6.55,6.55,0,0,1-6.06-3.49h-.07a16.13,16.13,0,0,1,.07,1.62v8.78h-2.5Zm8.3,13.74c3.27,0,6-2.76,6-7.46,0-4.52-2.39-7.42-5.84-7.42-3.09,0-6,2.2-6,7.46C267.68,88.05,269.7,91.76,273.56,91.76Z"/><path class="cls-1" d="M286.75,78a.74.74,0,0,0-.81-.81H284.4V75H287c1.58,0,2.24.66,2.24,2.17v8.93c0,2.9.48,5.48,4,5.48,4.19,0,6.8-3.71,6.8-7.72V75h2.5v15.5a.72.72,0,0,0,.81.81h1.54v2.17H302.4c-1.54,0-2.24-.66-2.24-2.06v-.84a11.92,11.92,0,0,1,.07-1.32h-.07A7.88,7.88,0,0,1,293,94c-4.37,0-6.21-2.35-6.21-7.17Z"/><path class="cls-1" d="M308.87,70.67a.73.73,0,0,0-.81-.81h-1.54V67.7h2.61c1.58,0,2.24.66,2.24,2.24v6.69c0,.85-.07,1.51-.07,1.51h.07a6.7,6.7,0,0,1,6.28-3.53c5,0,8,4,8,9.7S322.2,94,317.35,94a6.74,6.74,0,0,1-6.06-3.56h-.07a14.33,14.33,0,0,1,.07,1.51v1.62h-2.42Zm8.3,21.09c3.27,0,6-2.76,6-7.46,0-4.52-2.43-7.42-5.84-7.42-3.09,0-6,2.2-6,7.46C311.29,88.05,313.2,91.76,317.17,91.76Z"/><path class="cls-1" d="M330.06,70.67a.73.73,0,0,0-.81-.81h-1.54V67.7h2.61c1.58,0,2.24.66,2.24,2.24V90.55a.72.72,0,0,0,.81.81h1.54v2.17h-2.61c-1.58,0-2.24-.66-2.24-2.24Z"/><path class="cls-1" d="M339.29,78a.74.74,0,0,0-.81-.81h-1.54V75h2.61c1.58,0,2.24.66,2.24,2.24V90.55a.72.72,0,0,0,.81.81h1.54v2.17h-2.61c-1.58,0-2.24-.66-2.24-2.24Zm-.07-10.32h2.42v3.16h-2.42Z"/><path class="cls-1" d="M348.21,70.67a.73.73,0,0,0-.81-.81h-1.54V67.7h2.61c1.58,0,2.24.55,2.24,2.13V82.1h1.91a2.65,2.65,0,0,0,2.09-.88L359.46,75h3l-5.33,6.76a4.37,4.37,0,0,1-1.4,1.32v.07a3.08,3.08,0,0,1,1.14,1.36l3.34,6c.33.63.7.81,1.69.81h1v2.17h-1.73c-1.84,0-2.35-.29-3.2-1.84l-3.67-6.61a2.05,2.05,0,0,0-1.95-.81h-1.69v9.26h-2.5Z"/><path class="cls-1" d="M367.24,99c1.62,0,2.72-1.32,3.42-3l1.1-2.54-6.5-15.4a1.19,1.19,0,0,0-1.29-.85h-.37V75h1.14c1.65,0,2.17.37,2.83,2l4.74,11.54c.37.92.66,2,.66,2H373a16.92,16.92,0,0,1,.63-2l4.56-11.54c.63-1.65,1.18-2,2.87-2h1.14v2.17h-.37a1.17,1.17,0,0,0-1.29.85l-8,19.33a5.65,5.65,0,0,1-5.29,3.86,5.39,5.39,0,0,1-4-1.8l1.18-1.84A4,4,0,0,0,367.24,99Z"/><path class="cls-1" d="M114.88,51.18,85,59.78A26.36,26.36,0,0,1,73.46,78.84L83,89.14,71.48,100.92l12.83,12c5.58-5.59,11.28-12,17.76-19.93l.76-.93.14-.17a55.84,55.84,0,0,0,12.19-35C115.16,54.93,115.06,53,114.88,51.18Z"/><path class="cls-1" d="M80.08,18.93,73,34.11A26.66,26.66,0,0,1,85.58,53.54c0,.05,0,.1,0,.16l29-8.35,0-.15A56.14,56.14,0,0,0,60.07.35l1.76,10.46Z"/><path class="cls-1" d="M56.45,29.71A26.32,26.32,0,0,1,65,31.13l4.63-9.92-15.74-7L51.5,0A56.57,56.57,0,0,0,7.75,27.7L33.93,42.26A26.55,26.55,0,0,1,56.45,29.71Z"/><path class="cls-1" d="M72.9,90.73l-7-7.47a26.56,26.56,0,0,1-25.3-3.47l-13.37,31.1c4.84,5.1,8.58,8.54,11.91,11.61C45,127.84,49.71,132.18,56.45,142c6.74-9.84,11.45-14.18,17.26-19.52C75,121.28,76.44,120,78,118.55L61.06,102.8Z"/><path class="cls-1" d="M29.93,55.66a26.31,26.31,0,0,1,1.21-7.88c.05-.16.09-.33.14-.49L4.9,32.62c-.07.15-.13.31-.19.46a56.47,56.47,0,0,0,7.51,57.65l.88,1.08c3.52,4.3,6.8,8.15,9.95,11.66L36.23,72.82A26.34,26.34,0,0,1,29.93,55.66Z"/></g></g></svg>
