<svg xmlns="http://www.w3.org/2000/svg" viewBox="0 0 227.44 91.71"><defs><style>.cls-1{fill:#fff;}</style></defs><title>Asset 2</title><g id="Layer_2" data-name="Layer 2"><g id="Vrstva_1" data-name="Vrstva 1"><path class="cls-1" d="M118,63.25c-1.13,0-1.7-.65-1.78-1.78L112.5,14.8h-11L89.69,42.14c-1.38,3.32-2.83,7.69-2.83,7.69H86.7s-1.45-4.37-2.83-7.69L72.06,14.8h-11L57.33,61.47c-.08,1.13-.65,1.78-1.78,1.78H52.65a2.17,2.17,0,0,1-2.51-1.78l-17-46.67H22.07L5,61.47a2.17,2.17,0,0,1-2.51,1.78H1.2v9H7.59c4,0,5.42-1.05,6.71-4.69l3.56-10H37.28l3.56,10c1.29,3.64,2.75,4.69,6.79,4.69H62.19c3.8,0,5.18-1.62,5.5-5.5l1.86-25.56a83.46,83.46,0,0,0,.08-9h.16a92.34,92.34,0,0,0,3.15,9l9.55,21.19h8.57l9.55-21.19a93.88,93.88,0,0,0,3.15-8.9h.16a82.07,82.07,0,0,0,.08,8.9l1.94,25.56c.32,3.88,1.62,5.5,5.42,5.5h9.14v-9ZM20.29,48.78l4.94-14.4c1.05-3.15,2.26-8.58,2.26-8.58h.16s1.21,5.42,2.26,8.58l4.94,14.4Z"/><path class="cls-1" d="M151.89,13.83c7.36,0,21.76,3.07,21.76,12.86v6.39H164V29.85c0-4.21-6.88-6.15-11.89-6.15-10.27,0-18.36,7.36-18.36,19.33,0,11.24,8.25,20.3,18.69,20.3a24.49,24.49,0,0,0,17.39-7.6l5.58,7.6a31.82,31.82,0,0,1-23.13,9.87C134.74,73.2,122.77,60,122.77,43,122.77,26.45,135.23,13.83,151.89,13.83ZM139.76,0h7.68l4,6.55h.16l4-6.55h7.76l-7.52,11H147.2Z"/><path class="cls-1" d="M184.08,23.78h-5.26v-9h25.72c10.51,0,17.87,6.47,17.87,17.31,0,10.35-7.12,14.64-9.54,15.13v.16a6.59,6.59,0,0,1,2.83,2.91l5.58,11.08c.89,1.7,2.26,1.86,4,1.86h1.05v9h-5.58c-4.29,0-6.15-.65-8-4.29l-7.36-14.48C204.23,51.2,203,50.8,200,50.8h-5.34V72.23h-10.6Zm19,18c5.34,0,8.49-3.32,8.49-9.06s-3.15-8.9-8.33-8.9h-8.57v18Z"/><path class="cls-1" d="M0,88H.18c.25,0,.39,0,.49-.3l3.12-8.39h1l3.12,8.39c.09.26.23.3.49.3h.16v.84H8.14c-.68,0-.88-.14-1.13-.79l-.83-2.25H2.4l-.84,2.25c-.24.65-.43.79-1.11.79H0Zm5.93-3L4.67,81.6c-.16-.45-.37-1.23-.37-1.23h0s-.2.79-.37,1.23L2.66,85Z"/><path class="cls-1" d="M9.93,83.14a.27.27,0,0,0-.3-.3H9.06V82h1c.57,0,.83.23.83.77v.46a5,5,0,0,1,0,.52h0A2.33,2.33,0,0,1,13,82a1.84,1.84,0,0,1,.37,0v.91a2.37,2.37,0,0,0-.34,0,2.18,2.18,0,0,0-2,1.76A4.48,4.48,0,0,0,10.85,86v2.88H9.93Z"/><path class="cls-1" d="M17.53,81.88c.77,0,2.43.33,2.43,1.45v.61h-.87v-.39c0-.57-1-.84-1.56-.84a2.74,2.74,0,0,0,0,5.48,3,3,0,0,0,2.2-1l.43.69A3.61,3.61,0,0,1,17.52,89a3.45,3.45,0,0,1-3.58-3.57A3.49,3.49,0,0,1,17.53,81.88Z"/><path class="cls-1" d="M21.65,80.43a.27.27,0,0,0-.3-.3h-.57v-.8h1c.58,0,.83.24.83.8V83c0,.31,0,.56,0,.56h0a2.92,2.92,0,0,1,2.7-1.7c1.69,0,2.29,1,2.29,2.64v3.24a.26.26,0,0,0,.3.3h.57v.8h-1c-.58,0-.83-.24-.83-.83V84.77c0-1.07-.16-2-1.49-2a2.59,2.59,0,0,0-2.47,1.94,3.24,3.24,0,0,0-.11.91v3.27h-.92Z"/><path class="cls-1" d="M32.63,81.88A2.85,2.85,0,0,1,35.49,85c0,.16,0,.46,0,.46H30.23a2.59,2.59,0,0,0,2.64,2.71,3,3,0,0,0,2-.84l.45.69a3.87,3.87,0,0,1-2.54,1,3.46,3.46,0,0,1-3.57-3.57A3.34,3.34,0,0,1,32.63,81.88Zm1.91,2.88a1.94,1.94,0,0,0-1.93-2.1,2.34,2.34,0,0,0-2.35,2.1Z"/><path class="cls-1" d="M40.29,81.88a3.57,3.57,0,1,1-3.59,3.54A3.53,3.53,0,0,1,40.29,81.88Zm0,6.32A2.69,2.69,0,0,0,43,85.42a2.65,2.65,0,1,0-5.3,0A2.69,2.69,0,0,0,40.31,88.2Z"/><path class="cls-1" d="M45.49,80.43a.27.27,0,0,0-.3-.3h-.57v-.8h1c.58,0,.83.24.83.83v7.61a.27.27,0,0,0,.3.3h.57v.8h-1c-.58,0-.83-.24-.83-.83Z"/><path class="cls-1" d="M51.79,81.88a3.57,3.57,0,1,1-3.59,3.54A3.53,3.53,0,0,1,51.79,81.88Zm0,6.32a2.69,2.69,0,0,0,2.64-2.78,2.65,2.65,0,1,0-5.3,0A2.69,2.69,0,0,0,51.8,88.2Z"/><path class="cls-1" d="M59.47,81.88A2.23,2.23,0,0,1,61.73,83h0v-.26c0-.49.22-.75.77-.75h.95v.8h-.55a.27.27,0,0,0-.3.3V88.7c0,2.17-1.6,3-3.28,3a5,5,0,0,1-2.22-.54l.35-.77a4.18,4.18,0,0,0,1.84.48c1.33,0,2.39-.62,2.39-2.14v-.6c0-.26,0-.49,0-.49h0a2.23,2.23,0,0,1-2.14,1.18c-1.83,0-3-1.45-3-3.5S57.63,81.88,59.47,81.88Zm2.25,3.44c0-2-.95-2.6-2.16-2.6s-2.1,1-2.1,2.59S58.34,88,59.68,88C60.77,88,61.72,87.33,61.72,85.33Z"/><path class="cls-1" d="M65,83.14a.27.27,0,0,0-.3-.3h-.57V82h1c.58,0,.83.25.83.83v4.9a.26.26,0,0,0,.3.3h.57v.8h-1c-.58,0-.83-.24-.83-.83Zm0-3.81h.89V80.5H65Z"/><path class="cls-1" d="M71.34,81.88c.77,0,2.43.33,2.43,1.45v.61H72.9v-.39c0-.57-1-.84-1.56-.84a2.74,2.74,0,0,0,0,5.48,3,3,0,0,0,2.2-1l.43.69A3.61,3.61,0,0,1,71.32,89a3.45,3.45,0,0,1-3.58-3.57A3.49,3.49,0,0,1,71.34,81.88Z"/><path class="cls-1" d="M75.46,80.43a.27.27,0,0,0-.3-.3H74.6v-.8h1c.58,0,.83.2.83.79v4.53h.7a1,1,0,0,0,.77-.33L79.61,82h1.13l-2,2.5a1.63,1.63,0,0,1-.52.49v0a1.14,1.14,0,0,1,.42.5l1.23,2.21c.12.23.26.3.62.3h.37v.8h-.64a1,1,0,0,1-1.18-.68l-1.36-2.44a.76.76,0,0,0-.72-.3h-.62v3.42h-.92Z"/><path class="cls-1" d="M85.71,84.66h.38v-.08c0-1.42-.52-1.93-1.76-1.93-.34,0-1.33.09-1.33.6v.43h-.88V83c0-.95,1.63-1.15,2.22-1.15C86.49,81.88,87,83,87,84.5v3.27a.26.26,0,0,0,.3.3h.57v.8h-.94c-.58,0-.81-.26-.81-.81,0-.3,0-.5,0-.5h0A2.42,2.42,0,0,1,83.85,89a2.11,2.11,0,0,1-2.32-2C81.53,84.74,84.53,84.66,85.71,84.66ZM84,88.24a2.38,2.38,0,0,0,2.09-2.54v-.31h-.39c-1.07,0-3.21,0-3.21,1.56A1.35,1.35,0,0,0,84,88.24Zm1.06-8.91h1l-1.18,1.61h-.8Z"/><path class="cls-1" d="M93,83.14a.27.27,0,0,0-.3-.3h-.57V82h1c.57,0,.83.25.83.76v.31a4.47,4.47,0,0,1,0,.49h0a2.8,2.8,0,0,1,2.47-1.72,1.89,1.89,0,0,1,2.12,1.71h0a2.77,2.77,0,0,1,2.51-1.71c1.65,0,2.26,1,2.26,2.64v3.24a.27.27,0,0,0,.3.3h.57v.8h-1c-.58,0-.83-.24-.83-.83V84.76c0-1.11-.23-2-1.48-2a2.45,2.45,0,0,0-2.16,1.93,3.25,3.25,0,0,0-.12,1v3.23h-.92V84.76c0-1-.15-2-1.44-2a2.5,2.5,0,0,0-2.22,2,3.36,3.36,0,0,0-.11.91v3.23H93Z"/><path class="cls-1" d="M109.21,84.66h.38v-.08c0-1.42-.52-1.93-1.76-1.93-.34,0-1.33.09-1.33.6v.43h-.88V83c0-.95,1.63-1.15,2.22-1.15,2.16,0,2.67,1.15,2.67,2.62v3.27a.26.26,0,0,0,.3.3h.57v.8h-.94c-.58,0-.81-.26-.81-.81,0-.3,0-.5,0-.5h0A2.42,2.42,0,0,1,107.35,89,2.11,2.11,0,0,1,105,87C105,84.74,108,84.66,109.21,84.66Zm-1.71,3.58a2.38,2.38,0,0,0,2.09-2.54v-.31h-.39c-1.07,0-3.21,0-3.21,1.56A1.35,1.35,0,0,0,107.5,88.24Z"/><path class="cls-1" d="M112.84,83.14a.27.27,0,0,0-.3-.3H112V82h.94c.58,0,.81.25.81.72,0,.27,0,.46,0,.46h0a2.45,2.45,0,0,1,2.35-1.34c1.83,0,3,1.47,3,3.58S117.77,89,116,89a2.42,2.42,0,0,1-2.24-1.29h0a5.65,5.65,0,0,1,0,.6v3.24h-.92Zm3.07,5.07c1.21,0,2.2-1,2.2-2.75s-.88-2.74-2.16-2.74-2.21.81-2.21,2.75C113.74,86.85,114.48,88.21,115.91,88.21Z"/><path class="cls-1" d="M124.28,84.66h.38v-.08c0-1.42-.52-1.93-1.76-1.93-.34,0-1.33.09-1.33.6v.43h-.88V83c0-.95,1.63-1.15,2.22-1.15,2.16,0,2.67,1.15,2.67,2.62v3.27a.26.26,0,0,0,.3.3h.57v.8h-.94c-.58,0-.81-.26-.81-.81,0-.3,0-.5,0-.5h0A2.42,2.42,0,0,1,122.42,89a2.11,2.11,0,0,1-2.32-2C120.1,84.74,123.1,84.66,124.28,84.66Zm-1.71,3.58a2.38,2.38,0,0,0,2.09-2.54v-.31h-.39c-1.07,0-3.21,0-3.21,1.56A1.35,1.35,0,0,0,122.57,88.24Z"/><path class="cls-1" d="M135.65,79.17c1.35,0,3.57.58,3.57,2V82h-.9v-.53c0-.89-1.54-1.38-2.64-1.38a3.75,3.75,0,0,0-3.74,4,3.9,3.9,0,0,0,3.78,4.11,4.36,4.36,0,0,0,3.12-1.34l.54.69A5.06,5.06,0,0,1,135.7,89a4.77,4.77,0,0,1-4.76-5A4.68,4.68,0,0,1,135.65,79.17ZM134,77.05h.87l.73,1.09h0l.73-1.09h.86l-1.14,1.61h-.94Z"/><path class="cls-1" d="M143.75,81.88A2.85,2.85,0,0,1,146.61,85c0,.16,0,.46,0,.46h-5.23A2.59,2.59,0,0,0,144,88.2a3,3,0,0,0,2-.84l.45.69A3.87,3.87,0,0,1,144,89a3.46,3.46,0,0,1-3.57-3.57A3.34,3.34,0,0,1,143.75,81.88Zm1.91,2.88a1.94,1.94,0,0,0-1.93-2.1,2.34,2.34,0,0,0-2.35,2.1Z"/><path class="cls-1" d="M148.2,87.2a2.78,2.78,0,0,0,2.1,1c.76,0,1.44-.37,1.44-1.08,0-1.49-3.82-1.22-3.82-3.42,0-1.23,1.06-1.84,2.43-1.84.69,0,2.07.27,2.07,1.23v.58h-.87v-.33c0-.5-.73-.69-1.18-.69-1,0-1.52.33-1.52,1,0,1.53,3.82,1.18,3.82,3.44,0,1.14-1,1.91-2.39,1.91a3.27,3.27,0,0,1-2.62-1.19Z"/><path class="cls-1" d="M154.39,80.43a.27.27,0,0,0-.3-.3h-.57v-.8h1c.58,0,.83.2.83.79v4.53h.7a1,1,0,0,0,.77-.33L158.53,82h1.13l-2,2.5a1.63,1.63,0,0,1-.52.49v0a1.14,1.14,0,0,1,.42.5l1.23,2.21c.12.23.26.3.62.3h.37v.8h-.64a1,1,0,0,1-1.18-.68l-1.36-2.44a.76.76,0,0,0-.72-.3h-.62v3.42h-.92Z"/><path class="cls-1" d="M163.77,81.88A2.85,2.85,0,0,1,166.63,85c0,.16,0,.46,0,.46h-5.23A2.59,2.59,0,0,0,164,88.2a3,3,0,0,0,2-.84l.45.69A3.87,3.87,0,0,1,164,89a3.46,3.46,0,0,1-3.57-3.57A3.34,3.34,0,0,1,163.77,81.88Zm1.91,2.88a1.94,1.94,0,0,0-1.93-2.1,2.34,2.34,0,0,0-2.35,2.1Zm-1.4-5.42h1l-1.18,1.61h-.8Z"/><path class="cls-1" d="M172.17,83.14a.27.27,0,0,0-.3-.3h-.57V82h1c.57,0,.83.23.83.77v.46a5,5,0,0,1,0,.52h0A2.33,2.33,0,0,1,175.24,82a1.84,1.84,0,0,1,.37,0v.91a2.37,2.37,0,0,0-.34,0,2.18,2.18,0,0,0-2,1.76A4.48,4.48,0,0,0,173.1,86v2.88h-.92Z"/><path class="cls-1" d="M179.54,81.88A2.85,2.85,0,0,1,182.4,85c0,.16,0,.46,0,.46h-5.23a2.59,2.59,0,0,0,2.64,2.71,3,3,0,0,0,2-.84l.45.69a3.87,3.87,0,0,1-2.54,1,3.46,3.46,0,0,1-3.57-3.57A3.34,3.34,0,0,1,179.54,81.88Zm1.91,2.88a1.94,1.94,0,0,0-1.93-2.1,2.34,2.34,0,0,0-2.35,2.1Z"/><path class="cls-1" d="M184.25,83.14a.27.27,0,0,0-.3-.3h-.57V82h.94c.58,0,.81.25.81.72,0,.27,0,.46,0,.46h0a2.45,2.45,0,0,1,2.35-1.34c1.83,0,3,1.47,3,3.58S189.17,89,187.41,89a2.42,2.42,0,0,1-2.24-1.29h0a5.63,5.63,0,0,1,0,.6v3.24h-.92Zm3.07,5.07c1.21,0,2.2-1,2.2-2.75s-.88-2.74-2.16-2.74-2.21.81-2.21,2.75C185.14,86.85,185.89,88.21,187.31,88.21Z"/><path class="cls-1" d="M192.19,83.14a.27.27,0,0,0-.3-.3h-.57V82h1c.58,0,.83.25.83.8v3.3c0,1.07.18,2,1.49,2a2.65,2.65,0,0,0,2.51-2.85V82H198v5.72a.27.27,0,0,0,.3.3h.57v.8H198c-.57,0-.83-.24-.83-.76v-.31a4.4,4.4,0,0,1,0-.49h0A2.91,2.91,0,0,1,194.48,89c-1.61,0-2.29-.87-2.29-2.64Z"/><path class="cls-1" d="M200.35,80.43a.27.27,0,0,0-.3-.3h-.57v-.8h1c.58,0,.83.24.83.83v2.47c0,.31,0,.56,0,.56h0a2.47,2.47,0,0,1,2.32-1.3c1.83,0,3,1.47,3,3.58S205.28,89,203.49,89a2.49,2.49,0,0,1-2.24-1.32h0a5.34,5.34,0,0,1,0,.56v.6h-.89Zm3.06,7.78c1.21,0,2.2-1,2.2-2.75s-.89-2.74-2.16-2.74-2.21.81-2.21,2.75C201.25,86.85,202,88.21,203.42,88.21Z"/><path class="cls-1" d="M208.18,80.43a.27.27,0,0,0-.3-.3h-.57v-.8h1c.58,0,.83.24.83.83v7.61a.27.27,0,0,0,.3.3H210v.8h-1c-.58,0-.83-.24-.83-.83Z"/><path class="cls-1" d="M211.59,83.14a.27.27,0,0,0-.3-.3h-.57V82h1c.58,0,.83.25.83.83v4.9a.26.26,0,0,0,.3.3h.57v.8h-1c-.58,0-.83-.24-.83-.83Zm0-3.81h.89V80.5h-.89Z"/><path class="cls-1" d="M214.89,80.43a.27.27,0,0,0-.3-.3H214v-.8h1c.58,0,.83.2.83.79v4.53h.71a1,1,0,0,0,.77-.33L219,82h1.13l-2,2.5a1.63,1.63,0,0,1-.52.49v0a1.14,1.14,0,0,1,.42.5l1.23,2.21c.12.23.26.3.62.3h.37v.8h-.64a1,1,0,0,1-1.18-.68l-1.36-2.44a.76.76,0,0,0-.72-.3h-.62v3.42h-.92Z"/><path class="cls-1" d="M221.91,90.89c.6,0,1-.49,1.26-1.11l.41-.94-2.4-5.68a.44.44,0,0,0-.47-.31h-.14V82H221c.61,0,.8.14,1,.75L223.78,87c.14.34.25.73.25.73h0a6.14,6.14,0,0,1,.23-.73L226,82.79c.23-.61.43-.75,1.06-.75h.42v.8h-.13a.43.43,0,0,0-.48.31l-2.94,7.13a2.08,2.08,0,0,1-2,1.42,2,2,0,0,1-1.48-.66l.43-.68A1.46,1.46,0,0,0,221.91,90.89Z"/></g></g></svg>
