<svg xmlns="http://www.w3.org/2000/svg" viewBox="0 0 225.19 106.82"><defs><style>.cls-1{fill:#fff;}</style></defs><title>AMCR_w-01-ENG</title><g id="Layer_2" data-name="Layer 2"><g id="Vrstva_1" data-name="Vrstva 1"><path class="cls-1" d="M116.8,49.42c-1.13,0-1.7-.65-1.78-1.78L111.3,1h-11L88.49,28.31C87.11,31.63,85.66,36,85.66,36H85.5S84,31.63,82.67,28.31L70.86,1h-11L56.13,47.64c-.08,1.13-.65,1.78-1.78,1.78H51.45a2.17,2.17,0,0,1-2.51-1.78L32,1H20.87L3.8,47.64a2.17,2.17,0,0,1-2.51,1.78H0v9H6.39c4,0,5.42-1.05,6.71-4.69l3.56-10H36.08l3.56,10c1.29,3.64,2.75,4.69,6.79,4.69H61c3.8,0,5.18-1.62,5.5-5.5l1.86-25.56a83.46,83.46,0,0,0,.08-9h.16a92.34,92.34,0,0,0,3.15,9l9.55,21.19h8.57l9.54-21.19a93.88,93.88,0,0,0,3.15-8.9h.16a82.07,82.07,0,0,0,.08,8.9l1.94,25.56c.32,3.88,1.62,5.5,5.42,5.5h9.14v-9ZM19.09,34.94,24,20.55C25.08,17.39,26.29,12,26.29,12h.16s1.21,5.42,2.26,8.58l4.94,14.4Z"/><path class="cls-1" d="M150.69,0c7.36,0,21.76,3.07,21.76,12.86v6.39h-9.63V16c0-4.21-6.88-6.15-11.89-6.15-10.27,0-18.36,7.36-18.36,19.33,0,11.24,8.25,20.3,18.69,20.3a24.49,24.49,0,0,0,17.39-7.6l5.58,7.6a31.82,31.82,0,0,1-23.13,9.87c-17.55,0-29.52-13.18-29.52-30.17C121.57,12.62,134,0,150.69,0Z"/><path class="cls-1" d="M182.88,9.95h-5.26V1h25.72c10.51,0,17.87,6.47,17.87,17.31,0,10.35-7.12,14.64-9.54,15.13v.16a6.59,6.59,0,0,1,2.83,2.91l5.58,11.08c.89,1.7,2.26,1.86,4,1.86h1.05v9h-5.58c-4.29,0-6.15-.65-8-4.29l-7.36-14.48C203,37.37,201.81,37,198.82,37h-5.34V58.4h-10.6Zm19,18c5.34,0,8.49-3.32,8.49-9.06s-3.15-8.9-8.33-8.9h-8.57v18Z"/><path class="cls-1" d="M27.41,80.49h.24c.34,0,.54-.06.67-.41l4.3-11.57H34l4.3,11.57c.13.35.32.41.67.41h.22v1.16h-.6c-.93,0-1.21-.19-1.55-1.08l-1.14-3.1H30.72l-1.16,3.1c-.34.9-.6,1.08-1.53,1.08h-.62Zm8.17-4.17-1.74-4.69c-.22-.62-.5-1.7-.5-1.7h0s-.28,1.08-.5,1.7l-1.72,4.69Z"/><path class="cls-1" d="M41.1,73.76a.37.37,0,0,0-.41-.41H39.9v-1.1h1.31c.79,0,1.14.32,1.14,1.06v.64a6.91,6.91,0,0,1,0,.71h0a3.21,3.21,0,0,1,3-2.5,2.53,2.53,0,0,1,.5.06v1.25a3.12,3.12,0,0,0-.47,0,3,3,0,0,0-2.73,2.43,6.18,6.18,0,0,0-.26,1.83v4H41.1Z"/><path class="cls-1" d="M51.57,72c1.06,0,3.34.45,3.34,2v.84h-1.2v-.54c0-.79-1.36-1.16-2.15-1.16a3.78,3.78,0,0,0,0,7.55,4.16,4.16,0,0,0,3-1.33l.6,1a5,5,0,0,1-3.68,1.53A4.76,4.76,0,0,1,46.61,77,4.81,4.81,0,0,1,51.57,72Z"/><path class="cls-1" d="M57.25,70a.37.37,0,0,0-.41-.41h-.79v-1.1h1.33c.8,0,1.14.34,1.14,1.1v4c0,.43,0,.77,0,.77h0A4,4,0,0,1,62.24,72c2.34,0,3.16,1.33,3.16,3.64v4.47a.37.37,0,0,0,.41.41h.78v1.1H65.27c-.8,0-1.14-.34-1.14-1.14V76c0-1.48-.22-2.78-2.06-2.78a3.57,3.57,0,0,0-3.4,2.67,4.43,4.43,0,0,0-.15,1.25v4.5H57.25Z"/><path class="cls-1" d="M73.5,75.85H74v-.11c0-2-.71-2.65-2.43-2.65-.47,0-1.83.13-1.83.82v.6H68.55v-.9c0-1.31,2.24-1.59,3.06-1.59,3,0,3.68,1.59,3.68,3.61v4.5a.37.37,0,0,0,.41.41h.78v1.1H75.2c-.8,0-1.12-.36-1.12-1.12,0-.41,0-.69,0-.69h0a3.33,3.33,0,0,1-3.12,2,2.91,2.91,0,0,1-3.2-2.78C67.74,76,71.87,75.85,73.5,75.85Zm-2.36,4.93c1.79,0,2.88-1.87,2.88-3.5v-.43h-.54c-1.48,0-4.43,0-4.43,2.15A1.87,1.87,0,0,0,71.14,80.79Z"/><path class="cls-1" d="M82.27,72c2.6,0,3.94,2,3.94,4.34,0,.22,0,.64,0,.64H79a3.57,3.57,0,0,0,3.64,3.74,4.19,4.19,0,0,0,2.82-1.16l.62,1a5.33,5.33,0,0,1-3.49,1.34A4.76,4.76,0,0,1,77.63,77,4.6,4.6,0,0,1,82.27,72Zm2.63,4a2.67,2.67,0,0,0-2.65-2.9A3.23,3.23,0,0,0,79,76Z"/><path class="cls-1" d="M92.83,72a4.92,4.92,0,1,1-5,4.88A4.87,4.87,0,0,1,92.83,72Zm0,8.71A3.71,3.71,0,0,0,96.5,76.9a3.65,3.65,0,1,0-7.31,0A3.71,3.71,0,0,0,92.85,80.73Z"/><path class="cls-1" d="M100,70a.38.38,0,0,0-.41-.41H98.8v-1.1h1.33c.8,0,1.14.34,1.14,1.14V80.13a.37.37,0,0,0,.41.41h.78v1.1h-1.33c-.8,0-1.14-.34-1.14-1.14Z"/><path class="cls-1" d="M108.67,72a4.92,4.92,0,1,1-5,4.88A4.87,4.87,0,0,1,108.67,72Zm0,8.71a3.71,3.71,0,0,0,3.64-3.83,3.65,3.65,0,1,0-7.31,0A3.71,3.71,0,0,0,108.69,80.73Z"/><path class="cls-1" d="M119.25,72c2.52,0,3.12,1.61,3.12,1.61h0v-.36c0-.67.3-1,1.07-1h1.31v1.1H124a.37.37,0,0,0-.41.41v7.66c0,3-2.2,4.15-4.52,4.15a6.87,6.87,0,0,1-3.07-.75l.49-1.06a5.78,5.78,0,0,0,2.54.65c1.83,0,3.29-.86,3.29-3v-.82c0-.36,0-.67,0-.67h0a3.08,3.08,0,0,1-3,1.63c-2.52,0-4.19-2-4.19-4.82S116.73,72,119.25,72Zm3.1,4.75c0-2.75-1.31-3.59-3-3.59-1.83,0-2.9,1.33-2.9,3.57s1.22,3.7,3.06,3.7C121,80.45,122.36,79.53,122.36,76.77Z"/><path class="cls-1" d="M126.94,73.76a.37.37,0,0,0-.41-.41h-.78v-1.1h1.33c.8,0,1.14.34,1.14,1.14v6.75a.37.37,0,0,0,.41.41h.79v1.1h-1.33c-.8,0-1.14-.34-1.14-1.14Zm0-5.25h1.23v1.61H126.9Z"/><path class="cls-1" d="M135.61,72c1.06,0,3.34.45,3.34,2v.84h-1.2v-.54c0-.79-1.36-1.16-2.15-1.16a3.78,3.78,0,0,0,0,7.55,4.16,4.16,0,0,0,3-1.33l.6,1a5,5,0,0,1-3.68,1.53A4.76,4.76,0,0,1,130.66,77,4.81,4.81,0,0,1,135.61,72Z"/><path class="cls-1" d="M146.29,75.85h.52v-.11c0-2-.71-2.65-2.43-2.65-.47,0-1.83.13-1.83.82v.6h-1.21v-.9c0-1.31,2.24-1.59,3.06-1.59,3,0,3.68,1.59,3.68,3.61v4.5a.37.37,0,0,0,.41.41h.78v1.1H148c-.8,0-1.12-.36-1.12-1.12,0-.41,0-.69,0-.69h0a3.33,3.33,0,0,1-3.12,2,2.91,2.91,0,0,1-3.2-2.78C140.53,76,144.66,75.85,146.29,75.85Zm-2.36,4.93c1.79,0,2.88-1.87,2.88-3.5v-.43h-.54c-1.48,0-4.43,0-4.43,2.15A1.87,1.87,0,0,0,143.94,80.79Z"/><path class="cls-1" d="M151.29,70a.38.38,0,0,0-.41-.41h-.78v-1.1h1.33c.8,0,1.14.34,1.14,1.14V80.13a.37.37,0,0,0,.41.41h.78v1.1h-1.33c-.8,0-1.14-.34-1.14-1.14Z"/><path class="cls-1" d="M161,73.76a.37.37,0,0,0-.41-.41h-.79v-1.1h1.31c.79,0,1.14.34,1.14,1v.43a6.1,6.1,0,0,1,0,.67h0a3.87,3.87,0,0,1,3.4-2.37,2.6,2.6,0,0,1,2.92,2.36h0A3.82,3.82,0,0,1,172,72c2.28,0,3.12,1.33,3.12,3.64v4.47a.37.37,0,0,0,.41.41h.78v1.1H175c-.8,0-1.14-.34-1.14-1.14V76c0-1.53-.32-2.8-2-2.8a3.38,3.38,0,0,0-3,2.65,4.46,4.46,0,0,0-.17,1.36v4.45h-1.27V76c0-1.42-.2-2.8-2-2.8a3.44,3.44,0,0,0-3.06,2.77,4.54,4.54,0,0,0-.15,1.25v4.45H161Z"/><path class="cls-1" d="M183.26,75.85h.52v-.11c0-2-.71-2.65-2.43-2.65-.47,0-1.83.13-1.83.82v.6h-1.21v-.9c0-1.31,2.24-1.59,3.06-1.59,3,0,3.68,1.59,3.68,3.61v4.5a.37.37,0,0,0,.41.41h.78v1.1H185c-.8,0-1.12-.36-1.12-1.12,0-.41,0-.69,0-.69h0a3.33,3.33,0,0,1-3.12,2,2.91,2.91,0,0,1-3.2-2.78C177.5,76,181.63,75.85,183.26,75.85Zm-2.36,4.93c1.79,0,2.88-1.87,2.88-3.5v-.43h-.54c-1.48,0-4.43,0-4.43,2.15A1.87,1.87,0,0,0,180.9,80.79Z"/><path class="cls-1" d="M188.27,73.76a.37.37,0,0,0-.41-.41h-.79v-1.1h1.29c.8,0,1.12.34,1.12,1,0,.37,0,.63,0,.63h0A3.37,3.37,0,0,1,192.74,72c2.52,0,4.09,2,4.09,4.93s-1.78,4.92-4.2,4.92a3.33,3.33,0,0,1-3.08-1.78h0s0,.34,0,.82v4.47h-1.27Zm4.22,7c1.66,0,3-1.4,3-3.79s-1.22-3.77-3-3.77c-1.57,0-3,1.12-3,3.79C189.5,78.86,190.53,80.75,192.49,80.75Z"/><path class="cls-1" d="M24.53,93.46a4.92,4.92,0,1,1-5,4.88A4.87,4.87,0,0,1,24.53,93.46Zm0,8.71a3.71,3.71,0,0,0,3.64-3.83,3.65,3.65,0,1,0-7.31,0A3.71,3.71,0,0,0,24.55,102.17Z"/><path class="cls-1" d="M31.89,94.75H30.72V93.69h1.18v-.34c0-3.1,2.19-3.5,3.23-3.5a3.79,3.79,0,0,1,.58,0V91a2.22,2.22,0,0,0-.45,0c-.71,0-2.09.26-2.09,2.36v.34h2.39v1.06H33.17v8.34H31.89Z"/><path class="cls-1" d="M42.78,94.75H41.54V93.69H42.8v-2.6H44v2.6H46.4v1.06H44v4.78c0,2.21,1.4,2.49,2.11,2.49a2.13,2.13,0,0,0,.43,0v1.14a3.58,3.58,0,0,1-.54,0c-1.08,0-3.27-.36-3.27-3.5Z"/><path class="cls-1" d="M48.74,91.46a.37.37,0,0,0-.41-.41h-.79v-1.1h1.33c.8,0,1.14.34,1.14,1.1v4c0,.43,0,.77,0,.77h0a4,4,0,0,1,3.72-2.34c2.34,0,3.16,1.33,3.16,3.64v4.47a.37.37,0,0,0,.41.41h.78v1.1H56.76c-.8,0-1.14-.34-1.14-1.14v-4.5c0-1.48-.22-2.78-2.06-2.78a3.57,3.57,0,0,0-3.4,2.67A4.43,4.43,0,0,0,50,98.58v4.5H48.74Z"/><path class="cls-1" d="M63.87,93.46c2.6,0,3.94,2,3.94,4.34,0,.22,0,.64,0,.64H60.56a3.57,3.57,0,0,0,3.64,3.74A4.19,4.19,0,0,0,67,101l.62,1a5.33,5.33,0,0,1-3.49,1.34,4.76,4.76,0,0,1-4.92-4.92A4.6,4.6,0,0,1,63.87,93.46Zm2.63,4a2.67,2.67,0,0,0-2.65-2.9,3.23,3.23,0,0,0-3.23,2.9Z"/><path class="cls-1" d="M81,89.72c1.87,0,4.91.8,4.91,2.78v1.08H84.7v-.73c0-1.23-2.13-1.91-3.64-1.91a5.17,5.17,0,0,0-5.16,5.46,5.37,5.37,0,0,0,5.21,5.66,6,6,0,0,0,4.3-1.85l.75,1a7,7,0,0,1-5.06,2.13,6.58,6.58,0,0,1-6.56-6.9A6.46,6.46,0,0,1,81,89.72Z"/><path class="cls-1" d="M87.52,102.26l5.29-6.6c.36-.45.75-.86.75-.86v0a9.05,9.05,0,0,1-.93,0H89.19a.37.37,0,0,0-.41.41v.73h-1.2V94.83c0-.8.34-1.14,1.14-1.14h6.52v.84L90,101.11c-.37.45-.78.86-.78.86v0s.34,0,1,0H94a.37.37,0,0,0,.41-.41v-.73h1.2v1.12c0,.8-.34,1.14-1.14,1.14h-7Z"/><path class="cls-1" d="M101.32,93.46c2.6,0,3.94,2,3.94,4.34,0,.22,0,.64,0,.64H98a3.57,3.57,0,0,0,3.64,3.74,4.19,4.19,0,0,0,2.82-1.16l.62,1a5.33,5.33,0,0,1-3.49,1.34,4.76,4.76,0,0,1-4.92-4.92A4.6,4.6,0,0,1,101.32,93.46Zm2.64,4a2.67,2.67,0,0,0-2.65-2.9,3.23,3.23,0,0,0-3.23,2.9Z"/><path class="cls-1" d="M111.88,93.46c1.06,0,3.34.45,3.34,2v.84H114v-.54c0-.79-1.36-1.16-2.15-1.16a3.78,3.78,0,0,0,0,7.55,4.16,4.16,0,0,0,3-1.33l.6,1a5,5,0,0,1-3.68,1.53,4.76,4.76,0,0,1-4.93-4.92A4.81,4.81,0,0,1,111.88,93.46Z"/><path class="cls-1" d="M117.57,91.46a.37.37,0,0,0-.41-.41h-.79v-1.1h1.33c.8,0,1.14.34,1.14,1.1v4c0,.43,0,.77,0,.77h0a4,4,0,0,1,3.72-2.34c2.34,0,3.16,1.33,3.16,3.64v4.47a.37.37,0,0,0,.41.41h.78v1.1h-1.33c-.8,0-1.14-.34-1.14-1.14v-4.5c0-1.48-.22-2.78-2.06-2.78a3.57,3.57,0,0,0-3.4,2.67,4.43,4.43,0,0,0-.15,1.25v4.5h-1.27Z"/><path class="cls-1" d="M134.4,91.11h-1.22V89.95h5.57a3.56,3.56,0,0,1,3.78,3.74A3.38,3.38,0,0,1,140,97.2v0a1.28,1.28,0,0,1,.45.52l1.89,3.74c.19.39.47.43.93.43h.26v1.16h-.58c-1.06,0-1.38-.13-1.81-1l-1.89-3.76a1.16,1.16,0,0,0-1.33-.78h-2.2v5.53H134.4Zm4.22,5.29a2.42,2.42,0,0,0,2.54-2.67,2.38,2.38,0,0,0-2.52-2.62h-2.93V96.4Z"/><path class="cls-1" d="M149,93.46c2.6,0,3.94,2,3.94,4.34,0,.22,0,.64,0,.64h-7.21a3.57,3.57,0,0,0,3.64,3.74,4.19,4.19,0,0,0,2.82-1.16l.62,1a5.33,5.33,0,0,1-3.49,1.34,4.76,4.76,0,0,1-4.92-4.92A4.6,4.6,0,0,1,149,93.46Zm2.64,4a2.67,2.67,0,0,0-2.65-2.9,3.23,3.23,0,0,0-3.23,2.9Z"/><path class="cls-1" d="M155.45,95.2a.37.37,0,0,0-.41-.41h-.79v-1.1h1.29c.8,0,1.12.34,1.12,1,0,.37,0,.64,0,.64h0a3.37,3.37,0,0,1,3.23-1.85c2.52,0,4.09,2,4.09,4.93s-1.78,4.92-4.2,4.92a3.33,3.33,0,0,1-3.08-1.78h0s0,.34,0,.82v4.47h-1.27Zm4.22,7c1.66,0,3-1.4,3-3.79s-1.22-3.77-3-3.77c-1.57,0-3,1.12-3,3.79C156.69,100.3,157.72,102.19,159.68,102.19Z"/><path class="cls-1" d="M166.39,95.2a.37.37,0,0,0-.41-.41h-.78v-1.1h1.33c.8,0,1.14.34,1.14,1.1v4.54c0,1.48.24,2.78,2.06,2.78a3.65,3.65,0,0,0,3.46-3.92v-4.5h1.27v7.89a.36.36,0,0,0,.41.41h.79v1.1h-1.29c-.78,0-1.14-.34-1.14-1v-.43a5.85,5.85,0,0,1,0-.67h0a4,4,0,0,1-3.66,2.37c-2.22,0-3.16-1.2-3.16-3.64Z"/><path class="cls-1" d="M177.65,91.46a.37.37,0,0,0-.41-.41h-.79v-1.1h1.33c.8,0,1.14.34,1.14,1.14v3.4c0,.43,0,.77,0,.77h0a3.4,3.4,0,0,1,3.2-1.79c2.52,0,4.09,2,4.09,4.93s-1.78,4.92-4.24,4.92a3.43,3.43,0,0,1-3.08-1.81h0a7,7,0,0,1,0,.77v.82h-1.23Zm4.22,10.73c1.66,0,3-1.4,3-3.79s-1.23-3.77-3-3.77c-1.57,0-3,1.12-3,3.79C178.88,100.3,179.86,102.19,181.87,102.19Z"/><path class="cls-1" d="M188.44,91.46a.38.38,0,0,0-.41-.41h-.78v-1.1h1.33c.8,0,1.14.34,1.14,1.14v10.48a.37.37,0,0,0,.41.41h.78v1.1h-1.33c-.8,0-1.14-.34-1.14-1.14Z"/><path class="cls-1" d="M193.13,95.2a.37.37,0,0,0-.41-.41h-.78v-1.1h1.33c.8,0,1.14.34,1.14,1.14v6.75a.37.37,0,0,0,.41.41h.79v1.1h-1.33c-.8,0-1.14-.34-1.14-1.14Zm0-5.25h1.23v1.61h-1.23Z"/><path class="cls-1" d="M201.81,93.46c1.06,0,3.34.45,3.34,2v.84H204v-.54c0-.79-1.36-1.16-2.15-1.16a3.78,3.78,0,0,0,0,7.55,4.16,4.16,0,0,0,3-1.33l.6,1a5,5,0,0,1-3.68,1.53,4.76,4.76,0,0,1-4.93-4.92A4.81,4.81,0,0,1,201.81,93.46Z"/></g></g></svg>
