<svg xmlns="http://www.w3.org/2000/svg" viewBox="0 0 115.16 142.02"><defs><style>.cls-1{fill:#fff;}</style></defs><title>hover_logo</title><g id="Layer_2" data-name="Layer 2"><g id="Vrstva_1" data-name="Vrstva 1"><path class="cls-1" d="M114.88,51.18,85,59.78A26.36,26.36,0,0,1,73.46,78.84L83,89.14,71.48,100.92l12.83,12c5.58-5.59,11.28-12,17.76-19.93l.76-.93.14-.17a55.84,55.84,0,0,0,12.19-35C115.16,54.93,115.06,53,114.88,51.18Z"/><path class="cls-1" d="M80.08,18.93,73,34.11A26.66,26.66,0,0,1,85.58,53.54c0,.05,0,.1,0,.16l29-8.35,0-.15A56.14,56.14,0,0,0,60.07.35l1.76,10.46Z"/><path class="cls-1" d="M56.45,29.71A26.31,26.31,0,0,1,65,31.13l4.63-9.92-15.74-7L51.5,0A56.57,56.57,0,0,0,7.75,27.7L33.93,42.26A26.55,26.55,0,0,1,56.45,29.71Z"/><path class="cls-1" d="M72.9,90.73l-7-7.47a26.56,26.56,0,0,1-25.3-3.47l-13.37,31.1c4.84,5.1,8.58,8.54,11.91,11.61C45,127.84,49.71,132.18,56.45,142c6.74-9.84,11.45-14.18,17.26-19.52C75,121.28,76.44,120,78,118.55L61.06,102.8Z"/><path class="cls-1" d="M29.93,55.66a26.31,26.31,0,0,1,1.21-7.88c.05-.16.09-.33.14-.49L4.9,32.62c-.07.15-.13.31-.19.46a56.47,56.47,0,0,0,7.51,57.65l.88,1.08c3.52,4.3,6.8,8.15,9.95,11.66L36.23,72.82A26.34,26.34,0,0,1,29.93,55.66Z"/></g></g></svg>
