<svg xmlns="http://www.w3.org/2000/svg" viewBox="0 0 200 134"><defs><style>.cls-1{fill:#273476;}.cls-2{fill:#fff;}.cls-3{fill:#ed2f31;}</style></defs><title>en</title><g id="Layer_2" data-name="Layer 2"><g id="Flags"><polygon class="cls-1" points="116.71 134 175.34 134 116.71 93.75 116.71 134"/><path class="cls-1" d="M0,89v28a17,17,0,0,0,.3,3.12l44.78-30.4Z"/><path class="cls-1" d="M.3,13.85A17.1,17.1,0,0,0,0,17V43.62l44.74.73Z"/><polygon class="cls-1" points="177.26 0 116.71 0 116.71 41.1 177.26 0"/><path class="cls-1" d="M200,43.62V17a17,17,0,0,0-.3-3.15l-44.43,30.5Z"/><path class="cls-1" d="M199.7,120.13A17.17,17.17,0,0,0,200,117V89l-45.08.74Z"/><polygon class="cls-1" points="83.29 0 22.74 0 83.29 41.1 83.29 0"/><polygon class="cls-1" points="24.66 134 83.29 134 83.29 93.75 24.66 134"/><path class="cls-2" d="M83.29,41.1,22.74,0H17A16.9,16.9,0,0,0,7,3.3L66.58,45H51.64L1.65,9.73A16.81,16.81,0,0,0,.3,13.85l44.43,30.5L0,43.62v9.07l58.17.88,31.8.48V0H83.29Z"/><path class="cls-2" d="M110,81.27V134h6.68V93.75L175.34,134H183a16.93,16.93,0,0,0,10.82-3.88l-60.4-39.77h14.94l50.43,32.91a16.88,16.88,0,0,0,.91-3.13l-44.79-30.4L200,89V79.92l-58.24.88Z"/><path class="cls-2" d="M0,79.92V89l45.08.74L.3,120.12a17,17,0,0,0,5.88,10l60.4-39.77H81.53L17.22,134h7.44L83.29,93.75V134H90V81.27l-31.74-.48Z"/><path class="cls-2" d="M155.26,44.35l44.43-30.5A17,17,0,0,0,193,3.3L133.42,45H118.47L182.8,0h-5.54L116.71,41.1V0H110V54.05l31.8-.48L200,52.69V43.62Z"/><polygon class="cls-3" points="141.83 53.57 110.03 54.05 110.03 45.64 110.03 0 89.97 0 89.97 45.64 89.97 54.05 58.17 53.57 0 52.69 0 79.92 58.24 80.79 89.97 81.27 89.97 89.17 89.97 134 110.03 134 110.03 89.17 110.03 81.27 141.76 80.79 200 79.92 200 52.69 141.83 53.57"/><path class="cls-3" d="M51.64,45H66.58L7,3.3A17,17,0,0,0,1.65,9.73Z"/><path class="cls-3" d="M118.47,45h14.95L193,3.3A16.91,16.91,0,0,0,183,0h-.2Z"/><path class="cls-3" d="M133.42,90.35l60.4,39.77a17,17,0,0,0,5-6.86L148.36,90.35Z"/><path class="cls-3" d="M66.58,90.35,6.18,130.12A16.92,16.92,0,0,0,17,134h.22L81.53,90.35Z"/></g></g></svg>